# xmcd CD database file
#
# Track frame offsets:
#	150
#	17715
#	34662
#	58297
#	70080
#	85512
#	100360
#	120192
#	141947
#	163487
#	175237
#
# Disc length: 2539 seconds
#
# Revision: 1
# Processed by: cddbd v1.5.2PL0 Copyright (c) Steve Scherf et al.
# Submitted via: CDex 1.70beta2
#
DISCID=9109e90b
DTITLE=鈴木さえ子 - STUDIO ROMANTIC
DYEAR=1987
DGENRE=Pop
TTITLE0=Blow Up
TTITLE1=You're My Special
TTITLE2=Something In The Air
TTITLE3=Happy Families
TTITLE4=I Wish It Could Be Christmas Everyday In The U.K.
TTITLE5=TV Dinner
TTITLE6=Happy End
TTITLE7=Freak In
TTITLE8=Studio Romantic
TTITLE9=Dear Walt
TTITLE10=Adventure In South Pacific
EXTD=YEAR: 1987
EXTT0=
EXTT1=
EXTT2=
EXTT3=
EXTT4=
EXTT5=
EXTT6=
EXTT7=
EXTT8=
EXTT9=
EXTT10=
PLAYORDER=
